<mxfile host="65bd71144e">
    <diagram id="0mSmMj4EATtVLMBIq-Jw" name="Page-1">
        <mxGraphModel dx="1113" dy="857" grid="1" gridSize="10" guides="1" tooltips="1" connect="1" arrows="1" fold="1" page="1" pageScale="1" pageWidth="827" pageHeight="1169" math="0" shadow="0">
            <root>
                <mxCell id="0"/>
                <mxCell id="1" parent="0"/>
                <mxCell id="rsv5m47qW2A3e_6ivrRq-20" value="Test" style="edgeStyle=orthogonalEdgeStyle;rounded=0;orthogonalLoop=1;jettySize=auto;html=1;entryX=0;entryY=0.5;entryDx=0;entryDy=0;" parent="1" source="rsv5m47qW2A3e_6ivrRq-1" target="rsv5m47qW2A3e_6ivrRq-19" edge="1">
                    <mxGeometry y="15" relative="1" as="geometry">
                        <mxPoint as="offset"/>
                    </mxGeometry>
                </mxCell>
                <mxCell id="rsv5m47qW2A3e_6ivrRq-1" value="&lt;div&gt;&lt;b&gt;Frontend&lt;/b&gt;&lt;/div&gt;&lt;div&gt;&lt;br&gt;&lt;/div&gt;" style="rounded=0;whiteSpace=wrap;html=1;" parent="1" vertex="1">
                    <mxGeometry x="40" y="60" width="120" height="110" as="geometry"/>
                </mxCell>
                <mxCell id="rsv5m47qW2A3e_6ivrRq-15" value="Test" style="edgeStyle=orthogonalEdgeStyle;rounded=0;orthogonalLoop=1;jettySize=auto;html=1;entryX=0;entryY=0.5;entryDx=0;entryDy=0;" parent="1" source="rsv5m47qW2A3e_6ivrRq-3" target="rsv5m47qW2A3e_6ivrRq-26" edge="1">
                    <mxGeometry y="15" relative="1" as="geometry">
                        <mxPoint as="offset"/>
                    </mxGeometry>
                </mxCell>
                <mxCell id="rsv5m47qW2A3e_6ivrRq-3" value="&lt;div&gt;&lt;b&gt;Serveur API&lt;/b&gt;&lt;/div&gt;&lt;div&gt;&lt;b&gt;&lt;/b&gt;&lt;/div&gt;" style="rounded=0;whiteSpace=wrap;html=1;" parent="1" vertex="1">
                    <mxGeometry x="40" y="220" width="120" height="110" as="geometry"/>
                </mxCell>
                <mxCell id="rsv5m47qW2A3e_6ivrRq-12" style="edgeStyle=orthogonalEdgeStyle;rounded=0;orthogonalLoop=1;jettySize=auto;html=1;entryX=0;entryY=0.5;entryDx=0;entryDy=0;exitX=1;exitY=0.5;exitDx=0;exitDy=0;" parent="1" source="rsv5m47qW2A3e_6ivrRq-19" target="rsv5m47qW2A3e_6ivrRq-11" edge="1">
                    <mxGeometry relative="1" as="geometry">
                        <mxPoint x="580" y="115" as="sourcePoint"/>
                    </mxGeometry>
                </mxCell>
                <mxCell id="rsv5m47qW2A3e_6ivrRq-13" value="Construction &lt;br&gt;image container" style="edgeLabel;html=1;align=center;verticalAlign=middle;resizable=0;points=[];" parent="rsv5m47qW2A3e_6ivrRq-12" vertex="1" connectable="0">
                    <mxGeometry x="-0.14" y="-1" relative="1" as="geometry">
                        <mxPoint x="5" y="-20" as="offset"/>
                    </mxGeometry>
                </mxCell>
                <mxCell id="rsv5m47qW2A3e_6ivrRq-33" value="Déploiement" style="edgeStyle=orthogonalEdgeStyle;rounded=0;orthogonalLoop=1;jettySize=auto;html=1;entryX=0;entryY=0.5;entryDx=0;entryDy=0;" parent="1" source="rsv5m47qW2A3e_6ivrRq-11" target="rsv5m47qW2A3e_6ivrRq-25" edge="1">
                    <mxGeometry x="-0.1111" y="15" relative="1" as="geometry">
                        <mxPoint as="offset"/>
                    </mxGeometry>
                </mxCell>
                <mxCell id="rsv5m47qW2A3e_6ivrRq-11" value="&lt;div&gt;&lt;b&gt;Serveur&lt;/b&gt;&lt;/div&gt;&lt;div&gt;Image container&lt;br&gt;&lt;b&gt;&lt;/b&gt;&lt;/div&gt;" style="rounded=0;whiteSpace=wrap;html=1;" parent="1" vertex="1">
                    <mxGeometry x="510" y="60" width="120" height="110" as="geometry"/>
                </mxCell>
                <mxCell id="rsv5m47qW2A3e_6ivrRq-23" value="Déploiement" style="edgeStyle=orthogonalEdgeStyle;rounded=0;orthogonalLoop=1;jettySize=auto;html=1;" parent="1" source="rsv5m47qW2A3e_6ivrRq-14" target="rsv5m47qW2A3e_6ivrRq-22" edge="1">
                    <mxGeometry x="-0.1111" y="15" relative="1" as="geometry">
                        <mxPoint as="offset"/>
                        <Array as="points">
                            <mxPoint x="720" y="275"/>
                            <mxPoint x="720" y="275"/>
                        </Array>
                    </mxGeometry>
                </mxCell>
                <mxCell id="rsv5m47qW2A3e_6ivrRq-14" value="&lt;div&gt;&lt;b&gt;Serveur API&lt;br&gt;&lt;/b&gt;&lt;/div&gt;&lt;div&gt;Image container&lt;br&gt;&lt;/div&gt;" style="rounded=0;whiteSpace=wrap;html=1;" parent="1" vertex="1">
                    <mxGeometry x="520" y="220" width="120" height="110" as="geometry"/>
                </mxCell>
                <mxCell id="rsv5m47qW2A3e_6ivrRq-19" value="&lt;div&gt;&lt;b&gt;Frontend&lt;/b&gt;&lt;/div&gt;&lt;div&gt;&lt;br&gt;&lt;/div&gt;" style="rounded=0;whiteSpace=wrap;html=1;" parent="1" vertex="1">
                    <mxGeometry x="260" y="60" width="120" height="110" as="geometry"/>
                </mxCell>
                <mxCell id="rsv5m47qW2A3e_6ivrRq-22" value="&lt;div&gt;&lt;b&gt;Serveur API&lt;br&gt;&lt;/b&gt;&lt;/div&gt;&lt;div&gt;Registry&amp;nbsp;&lt;br&gt;&lt;/div&gt;" style="rounded=0;whiteSpace=wrap;html=1;" parent="1" vertex="1">
                    <mxGeometry x="750" y="210" width="120" height="110" as="geometry"/>
                </mxCell>
                <mxCell id="rsv5m47qW2A3e_6ivrRq-25" value="&lt;div&gt;&lt;b&gt;Serveur&lt;/b&gt;&lt;/div&gt;&lt;div&gt;Registry&lt;/div&gt;" style="rounded=0;whiteSpace=wrap;html=1;" parent="1" vertex="1">
                    <mxGeometry x="750" y="60" width="120" height="110" as="geometry"/>
                </mxCell>
                <mxCell id="2" style="edgeStyle=none;html=1;entryX=0;entryY=0.5;entryDx=0;entryDy=0;" edge="1" parent="1" source="rsv5m47qW2A3e_6ivrRq-26" target="rsv5m47qW2A3e_6ivrRq-14">
                    <mxGeometry relative="1" as="geometry"/>
                </mxCell>
                <mxCell id="3" value="Construction&lt;br&gt;image container" style="edgeLabel;html=1;align=center;verticalAlign=middle;resizable=0;points=[];" vertex="1" connectable="0" parent="2">
                    <mxGeometry x="-0.2195" y="2" relative="1" as="geometry">
                        <mxPoint x="5" y="-13" as="offset"/>
                    </mxGeometry>
                </mxCell>
                <mxCell id="rsv5m47qW2A3e_6ivrRq-26" value="&lt;div&gt;&lt;b&gt;Serveur API&lt;br&gt;&lt;/b&gt;&lt;/div&gt;&lt;div&gt;&lt;br&gt;&lt;/div&gt;&lt;div&gt;&lt;b&gt;&lt;/b&gt;&lt;/div&gt;" style="rounded=0;whiteSpace=wrap;html=1;" parent="1" vertex="1">
                    <mxGeometry x="260" y="220" width="120" height="110" as="geometry"/>
                </mxCell>
            </root>
        </mxGraphModel>
    </diagram>
</mxfile>